<svg id="Layer_1" data-name="Layer 1" xmlns="http://www.w3.org/2000/svg" viewBox="0 0 293 219.87"><defs><style>.cls-1{fill:#fff;}</style></defs><title>gmail</title><path class="cls-1" d="M0,15c.33-.87.69-1.73,1-2.62A18.17,18.17,0,0,1,17,.06,18,18,0,0,1,29.85,3.88C68,31.75,106.25,59.36,144.41,87.11c1.59,1.16,2.57,1.2,4.19,0,38.32-27.86,76.76-55.54,115-83.58,5.59-4.1,11-4.13,16.88-2.53A17.44,17.44,0,0,1,293,17.08V200.76c0,10.75-7.13,18.65-17.28,19-6.28.21-12.58,0-19.19,0V53.63c-1.4,1-2.31,1.57-3.19,2.21q-52.13,37.44-104.24,75c-2,1.41-3.2,1.38-5.13,0Q91.76,93.14,39.47,55.65c-.76-.55-1.56-1.06-2.73-1.86V219.53c-7.45,0-14.62.57-21.66-.16-7.5-.77-12.24-5.67-14.45-12.9-.16-.52-.41-1-.62-1.53Q0,110,0,15Z" transform="translate(0.02 0.02)"/></svg>