<svg id="Capa_1" data-name="Capa 1" xmlns="http://www.w3.org/2000/svg" viewBox="0 0 438.55 427.82"><defs><style>.cls-1{fill:#fff;}</style></defs><title>insta</title><path class="cls-1" d="M5.85,319.19q0-104.45,0-208.9C6.54,105.93,7,101.5,8,97.19,18.87,48.71,48.21,17.64,96.12,4.34,102.36,2.61,108.91,2,115.31.84h208.9c1.35.25,2.69.59,4.05.74,15.81,1.77,30.87,6.16,44.55,14.24,39.95,23.6,60.49,58.83,60.76,105.2.37,62.49.16,125,0,187.46a112.61,112.61,0,0,1-2.1,23.64c-10.64,48.59-40.11,79.7-88.06,93-6.25,1.74-12.8,2.36-19.21,3.51H115.31c-4.37-.7-8.8-1.15-13.11-2.12-48.47-10.9-79.56-40.23-92.85-88.15C7.62,332.15,7,325.6,5.85,319.19ZM43.78,214.76q0,46.36,0,92.73c0,9.78,1,19.44,4.31,28.74,12.07,33.86,41.26,54.39,78,54.46,62.38.12,124.75.21,187.13-.16a90.18,90.18,0,0,0,27.84-4.32c34.22-11.53,54.6-41.14,54.65-78.13.08-62.24.2-124.48-.17-186.71a90.62,90.62,0,0,0-4.28-27.85C379.91,59.62,350.57,39,314,38.83q-94.19-.35-188.38,0c-27.88,0-50.41,11.21-67,33.79-10.65,14.55-15,31.14-14.94,49Q43.83,168.19,43.78,214.76Z"/><path class="cls-1" d="M330,214.67C330.11,275.18,280.27,325,219.73,325S109.34,275.09,109.51,214.61,159,104.72,219.58,104.49,329.92,154,330,214.67Zm-38,.2c.17-39.71-32.17-72.16-72.09-72.34-39.72-.17-72.16,32.16-72.34,72.09-.17,39.72,32.16,72.16,72.09,72.34C259.34,287.14,291.8,254.79,292,214.87Z"/><path class="cls-1" d="M334.57,127.91a28,28,0,0,1-27.78-27.6c-.16-15.19,12.58-27.91,27.9-27.86A27.94,27.94,0,0,1,362.47,100C362.65,115.15,349.86,127.94,334.57,127.91Z"/></svg>