<svg id="Layer_1" data-name="Layer 1" xmlns="http://www.w3.org/2000/svg" viewBox="0 0 274.01 273.87"><defs><style>.cls-1{fill:#fff;}</style></defs><title>linkedin</title><path class="cls-1" d="M98.43,273.85V91.7h54.16v20.82l1.47.59c1.47-1.76,3-3.51,4.41-5.28,25.62-31,81.27-29,103.41,3.74,7.1,10.52,11.54,22.36,11.68,35,.47,41.51.35,83,.44,124.54a21.94,21.94,0,0,1-.39,2.76H218.25v-7.68c-.36-32.51-.43-65-1.2-97.53-.55-23.39-19.24-36.42-41.43-29.63-12.73,3.9-21.76,15.76-22,30.11-.59,32.71-.84,65.43-1.22,98.14v6.53Z" transform="translate(0.01 0)"/><path class="cls-1" d="M5.89,91.69H61.52V273.82H5.89Z" transform="translate(0.01 0)"/><path class="cls-1" d="M66.56,33.34c.1,19-14.68,34-33.57,33.92C15,67.2,0,52,0,33.78,0,15.17,14.53,0,32.47,0,52.06-.06,66.45,14,66.56,33.34Z" transform="translate(0.01 0)"/></svg>