<svg id="Layer_1" data-name="Layer 1" xmlns="http://www.w3.org/2000/svg" viewBox="0 0 224.15 224.13"><defs><style>.cls-1{fill:#fff;}</style></defs><title>navClose</title><path class="cls-1" d="M150.57,172.52l-80.26,80.6c-1.41,1.41-2.77,2.87-4.24,4.21-7.87,7.18-17,7.53-23.52.92s-6.33-15.9,1.17-23.48q38.46-38.82,77.26-77.3c2-2,4.6-3.39,7.81-5.72C109,132.14,90.62,114,72.27,95.77,63,86.55,53.67,77.34,44.5,68c-8-8.17-8.72-17.24-2.16-24.12,6.77-7.11,16.37-6.62,24.73,1.7,27.43,27.29,54.73,54.71,82.58,82.57,2.25-2,4.34-3.78,6.25-5.7q38.05-38,76-76.11c5.06-5.09,10.52-8.91,18.1-6.94,12.17,3.16,15.84,17.36,6.71,27.1-9.34,10-19.2,19.44-28.88,29.07C209.54,113.82,191.15,132,172,151.07c18.75,18.53,36.94,36.48,55.1,54.47,9.5,9.42,19,18.82,28.37,28.38,8,8.18,8.69,17.26,2.13,24.13-6.78,7.1-16.36,6.59-24.73-1.73q-38.14-37.93-76.07-76.08C154.76,178.24,153.19,175.81,150.57,172.52Z" transform="translate(-37.86 -38.87)"/></svg>