<svg id="Layer_1" data-name="Layer 1" xmlns="http://www.w3.org/2000/svg" viewBox="0 0 141 223.24"><defs><style>.cls-1{fill:#888;}</style></defs><title>rightArrow</title><path class="cls-1" d="M108.84,263.11c-5.36.18-9.65-2.48-13.45-6.06-3.42-3.23-6.7-6.61-9.92-10-7.7-8.19-7.69-18.5.11-26.63,5.21-5.43,10.63-10.67,15.95-16,16.54-16.54,33-33.14,49.68-49.57,2.69-2.65,2.59-4.14,0-6.75-21.6-21.36-43.06-42.88-64.58-64.32-9-8.92-8.74-20.79.51-29.39,3-2.83,5.86-5.91,8.85-8.79,7.89-7.61,18.55-7.6,26.26.09q45.95,45.89,91.84,91.84c8.78,8.79,8.92,19.28.14,28.1q-45.4,45.58-91,91C119.33,260.46,114.84,263.34,108.84,263.11Z" transform="translate(-79.71 -39.89)"/></svg>