<?xml version="1.0" encoding="utf-8"?>
<!-- Generator: Adobe Illustrator 26.1.0, SVG Export Plug-In . SVG Version: 6.00 Build 0)  -->
<svg version="1.1" id="WBD_Logo_00000183961912273665312120000012258325746911121068_"
	 xmlns="http://www.w3.org/2000/svg" xmlns:xlink="http://www.w3.org/1999/xlink" x="0px" y="0px" viewBox="0 0 126.8 122.1"
	 style="enable-background:new 0 0 126.8 122.1;" xml:space="preserve">
<style type="text/css">
	.st0{fill:#FFFFFF;}
	.st1{fill:url(#SVGID_1_);}
	.st2{fill:#FFC200;}
</style>
<g id="WBD_Logo">
	<g id="Shield">
		<linearGradient id="SVGID_1_" gradientUnits="userSpaceOnUse" x1="8.0875" y1="60.6516" x2="118.3609" y2="60.6516">
			<stop  offset="0" style="stop-color:#4047FF"/>
			<stop  offset="1" style="stop-color:#04006C"/>
		</linearGradient>
		<path class="st1" d="M118.4,39.8c-0.8,5.7-3.5,24.5-17.3,42.9c-14,19-32.3,28.2-37.9,31c-5.5-2.8-23.9-12-37.9-31
			C11.6,64.4,8.9,45.6,8.1,39.8l8.3-4.5v-6.2l8.3-4.5v-6.2c11.4-5.5,24-9,38.5-11c14.5,1.9,27.1,5.5,38.5,11v6.2l8.3,4.5v6.2
			L118.4,39.8z"/>
		<g>
			<path class="st2" d="M117.5,30.9v-6.2l-8.3-4.5v-6.5l-4.2-2C92.9,6,79.6,2.2,64.2,0.1l-1-0.1l-1,0.1C46.9,2.2,33.5,6,21.5,11.8
				l-4.2,2v6.5L9,24.7v6.2l-9,4.8l0.7,5.1c2.4,17.2,8.7,32.8,18.7,46.3c10.1,13.7,23.7,24.9,40.5,33.3l3.3,1.7l3.3-1.7
				c16.8-8.4,30.4-19.6,40.5-33.3c10-13.5,16.3-29.1,18.7-46.3l0.7-5.1L117.5,30.9z M118.4,39.8c-0.8,5.7-3.5,24.5-17.3,42.9
				c-14,19-32.3,28.2-37.9,31c-5.5-2.8-23.9-12-37.9-31C11.6,64.4,8.9,45.6,8.1,39.8l8.3-4.5v-6.2l8.3-4.5v-6.2
				c11.4-5.5,24-9,38.5-11c14.5,1.9,27.1,5.5,38.5,11v6.2l8.3,4.5v6.2L118.4,39.8z"/>
		</g>
		<g>
			<path class="st2" d="M50.9,22.4l0.4,50.5l-0.4,0.2c-5.3-13.5-8.5-30.3-9.5-47.2c-2.6,1.2-5.4,2.6-8.3,4.4
				c1.2,15.3,3.8,28.7,8.5,41.5l-2.7,1.5c-7.1-9.9-11.7-21.9-14.8-36.2c-2.2,2-4.3,4.2-6.5,6.6c4.1,17.1,10.7,30.1,20.2,40.6
				l7.3-4.4c3.6,7.5,8.6,14.9,14.2,20.8V20.9C56.5,21.2,53.7,21.7,50.9,22.4z"/>
		</g>
		<g>
			<path class="st2" d="M98.1,48.5c3-3.3,3.6-5.7,3.6-8.6c0-4.1-3.4-7.8-8.4-11c-3-1.9-7.6-4.2-14.3-6.1c-3.8-1-7.9-1.7-12-1.8v79.9
				c16.8-8.6,36.7-32.3,36.8-44.4C104,52.8,102.1,50.4,98.1,48.5z M75.4,30.5c4.1,0,17.5,4.2,17.5,9.6c0,1.9-1.7,4.7-7,7.5
				l-10.5,5.6V30.5z M85.8,74.8c-2.4,2.7-6.2,6.9-10.4,10.1V62c0,0,15.2-8.5,15.7-8.9c4.5,1.2,4.3,4.5,4.3,4.8
				C95.4,62.1,91.1,68.6,85.8,74.8z"/>
		</g>
	</g>
</g>
</svg>
